<mxfile host="app.diagrams.net" agent="Mozilla/5.0 (Macintosh; Intel Mac OS X 10_15_7) AppleWebKit/537.36 (KHTML, like Gecko) Chrome/134.0.0.0 Safari/537.36" version="26.1.0">
  <diagram name="Page-1" id="W23epmoRxir52C7uOG_1">
    <mxGraphModel dx="1173" dy="1167" grid="1" gridSize="10" guides="1" tooltips="1" connect="1" arrows="1" fold="1" page="1" pageScale="1" pageWidth="850" pageHeight="1100" math="0" shadow="0">
      <root>
        <mxCell id="0" />
        <mxCell id="1" parent="0" />
        <mxCell id="h7VdWZ_x1tT9iMLf5sIj-19" style="edgeStyle=orthogonalEdgeStyle;rounded=0;orthogonalLoop=1;jettySize=auto;html=1;" edge="1" parent="1" target="h7VdWZ_x1tT9iMLf5sIj-22">
          <mxGeometry relative="1" as="geometry">
            <mxPoint x="550" y="598.8" as="sourcePoint" />
            <mxPoint x="662.5" y="605" as="targetPoint" />
          </mxGeometry>
        </mxCell>
        <mxCell id="h7VdWZ_x1tT9iMLf5sIj-13" style="edgeStyle=orthogonalEdgeStyle;rounded=0;orthogonalLoop=1;jettySize=auto;html=1;exitX=0;exitY=0.5;exitDx=0;exitDy=0;entryX=0.5;entryY=1;entryDx=0;entryDy=0;" edge="1" parent="1" source="h7VdWZ_x1tT9iMLf5sIj-6" target="h7VdWZ_x1tT9iMLf5sIj-8">
          <mxGeometry relative="1" as="geometry" />
        </mxCell>
        <mxCell id="h7VdWZ_x1tT9iMLf5sIj-14" style="edgeStyle=orthogonalEdgeStyle;rounded=0;orthogonalLoop=1;jettySize=auto;html=1;exitX=0.5;exitY=0;exitDx=0;exitDy=0;" edge="1" parent="1" source="h7VdWZ_x1tT9iMLf5sIj-6" target="h7VdWZ_x1tT9iMLf5sIj-11">
          <mxGeometry relative="1" as="geometry">
            <Array as="points">
              <mxPoint x="730" y="370" />
              <mxPoint x="730" y="325" />
              <mxPoint x="725" y="325" />
            </Array>
          </mxGeometry>
        </mxCell>
        <mxCell id="h7VdWZ_x1tT9iMLf5sIj-33" style="edgeStyle=orthogonalEdgeStyle;rounded=0;orthogonalLoop=1;jettySize=auto;html=1;" edge="1" parent="1" source="h7VdWZ_x1tT9iMLf5sIj-6" target="h7VdWZ_x1tT9iMLf5sIj-28">
          <mxGeometry relative="1" as="geometry" />
        </mxCell>
        <mxCell id="h7VdWZ_x1tT9iMLf5sIj-6" value="&lt;p style=&quot;margin:0px;margin-top:4px;text-align:center;&quot;&gt;&lt;b&gt;Word&lt;/b&gt;&lt;/p&gt;&lt;hr size=&quot;1&quot; style=&quot;border-style:solid;&quot;&gt;&lt;p style=&quot;margin:0px;margin-left:4px;&quot;&gt;+ highlights&lt;/p&gt;&lt;hr size=&quot;1&quot; style=&quot;border-style:solid;&quot;&gt;&lt;p style=&quot;margin:0px;margin-left:4px;&quot;&gt;+ mountHighlight()&lt;/p&gt;&lt;p style=&quot;margin:0px;margin-left:4px;&quot;&gt;+ select()&lt;br&gt;+ hover()&lt;/p&gt;&lt;p style=&quot;margin:0px;margin-left:4px;&quot;&gt;&lt;br&gt;&lt;/p&gt;" style="verticalAlign=top;align=left;overflow=fill;html=1;whiteSpace=wrap;fillColor=#e1d5e7;strokeColor=#9673a6;" vertex="1" parent="1">
          <mxGeometry x="655" y="370" width="155" height="110" as="geometry" />
        </mxCell>
        <mxCell id="h7VdWZ_x1tT9iMLf5sIj-8" value="&lt;p style=&quot;margin:0px;margin-top:4px;text-align:center;&quot;&gt;&lt;b&gt;Monologue&lt;/b&gt;&lt;/p&gt;" style="verticalAlign=top;align=left;overflow=fill;html=1;whiteSpace=wrap;" vertex="1" parent="1">
          <mxGeometry x="495" y="280" width="140" height="30" as="geometry" />
        </mxCell>
        <mxCell id="h7VdWZ_x1tT9iMLf5sIj-11" value="&lt;p style=&quot;margin:0px;margin-top:4px;text-align:center;&quot;&gt;&lt;b&gt;WordGroup&lt;/b&gt;&lt;/p&gt;" style="verticalAlign=top;align=left;overflow=fill;html=1;whiteSpace=wrap;" vertex="1" parent="1">
          <mxGeometry x="660" y="280" width="140" height="30" as="geometry" />
        </mxCell>
        <mxCell id="h7VdWZ_x1tT9iMLf5sIj-15" style="edgeStyle=orthogonalEdgeStyle;rounded=0;orthogonalLoop=1;jettySize=auto;html=1;entryX=0.364;entryY=0.967;entryDx=0;entryDy=0;entryPerimeter=0;" edge="1" parent="1" source="h7VdWZ_x1tT9iMLf5sIj-42" target="h7VdWZ_x1tT9iMLf5sIj-8">
          <mxGeometry relative="1" as="geometry">
            <mxPoint x="470" y="527.5" as="sourcePoint" />
          </mxGeometry>
        </mxCell>
        <mxCell id="h7VdWZ_x1tT9iMLf5sIj-20" style="edgeStyle=orthogonalEdgeStyle;rounded=0;orthogonalLoop=1;jettySize=auto;html=1;" edge="1" parent="1" source="h7VdWZ_x1tT9iMLf5sIj-16" target="h7VdWZ_x1tT9iMLf5sIj-22">
          <mxGeometry relative="1" as="geometry">
            <mxPoint x="732.5" y="625" as="targetPoint" />
          </mxGeometry>
        </mxCell>
        <mxCell id="h7VdWZ_x1tT9iMLf5sIj-26" style="edgeStyle=orthogonalEdgeStyle;rounded=0;orthogonalLoop=1;jettySize=auto;html=1;" edge="1" parent="1" source="h7VdWZ_x1tT9iMLf5sIj-16" target="h7VdWZ_x1tT9iMLf5sIj-23">
          <mxGeometry relative="1" as="geometry" />
        </mxCell>
        <mxCell id="h7VdWZ_x1tT9iMLf5sIj-27" style="edgeStyle=orthogonalEdgeStyle;rounded=0;orthogonalLoop=1;jettySize=auto;html=1;exitX=0.75;exitY=1;exitDx=0;exitDy=0;" edge="1" parent="1" source="h7VdWZ_x1tT9iMLf5sIj-16" target="h7VdWZ_x1tT9iMLf5sIj-25">
          <mxGeometry relative="1" as="geometry" />
        </mxCell>
        <mxCell id="h7VdWZ_x1tT9iMLf5sIj-30" style="edgeStyle=orthogonalEdgeStyle;rounded=0;orthogonalLoop=1;jettySize=auto;html=1;" edge="1" parent="1" source="h7VdWZ_x1tT9iMLf5sIj-16" target="h7VdWZ_x1tT9iMLf5sIj-29">
          <mxGeometry relative="1" as="geometry" />
        </mxCell>
        <mxCell id="h7VdWZ_x1tT9iMLf5sIj-16" value="&lt;p style=&quot;margin:0px;margin-top:4px;text-align:center;&quot;&gt;&lt;b&gt;SelectionManager:&amp;nbsp;&lt;/b&gt;&lt;span style=&quot;background-color: transparent; color: light-dark(rgb(0, 0, 0), rgb(255, 255, 255)); text-align: left;&quot;&gt;EmptySpaceDelegate&lt;/span&gt;&lt;/p&gt;&lt;hr size=&quot;1&quot; style=&quot;border-style:solid;&quot;&gt;&lt;p style=&quot;margin:0px;margin-left:4px;&quot;&gt;+ isSelecting: boolean&lt;/p&gt;&lt;p style=&quot;margin:0px;margin-left:4px;&quot;&gt;+ selectionHasError: boolean&lt;/p&gt;&lt;hr size=&quot;1&quot; style=&quot;border-style:solid;&quot;&gt;&lt;p style=&quot;margin:0px;margin-left:4px;&quot;&gt;+ addSelectionChangeListener()&lt;/p&gt;" style="verticalAlign=top;align=left;overflow=fill;html=1;whiteSpace=wrap;fillColor=#fff2cc;strokeColor=#d6b656;" vertex="1" parent="1">
          <mxGeometry x="610" y="680" width="290" height="90" as="geometry" />
        </mxCell>
        <mxCell id="h7VdWZ_x1tT9iMLf5sIj-21" style="edgeStyle=orthogonalEdgeStyle;rounded=0;orthogonalLoop=1;jettySize=auto;html=1;exitX=0.413;exitY=0.027;exitDx=0;exitDy=0;exitPerimeter=0;" edge="1" parent="1" source="h7VdWZ_x1tT9iMLf5sIj-22" target="h7VdWZ_x1tT9iMLf5sIj-6">
          <mxGeometry relative="1" as="geometry">
            <mxPoint x="732.5" y="585" as="sourcePoint" />
          </mxGeometry>
        </mxCell>
        <mxCell id="h7VdWZ_x1tT9iMLf5sIj-22" value="&lt;p style=&quot;margin:0px;margin-top:4px;text-align:center;text-decoration:underline;&quot;&gt;&lt;b&gt;readonly Words:Word[]&lt;/b&gt;&lt;/p&gt;&lt;hr size=&quot;1&quot; style=&quot;border-style:solid;&quot;&gt;&lt;p style=&quot;margin:0px;margin-left:8px;&quot;&gt;&lt;br&gt;&lt;/p&gt;" style="verticalAlign=top;align=left;overflow=fill;html=1;whiteSpace=wrap;fillColor=#fad7ac;strokeColor=#b46504;opacity=30;" vertex="1" parent="1">
          <mxGeometry x="655" y="567.5" width="160" height="55" as="geometry" />
        </mxCell>
        <mxCell id="h7VdWZ_x1tT9iMLf5sIj-23" value="&lt;p style=&quot;margin:0px;margin-top:4px;text-align:center;&quot;&gt;&lt;b&gt;WordEventsDelegator&lt;/b&gt;&lt;/p&gt;&lt;hr size=&quot;1&quot; style=&quot;border-style:solid;&quot;&gt;&lt;p style=&quot;margin:0px;margin-left:4px;&quot;&gt;+ pointerOverEvent&lt;/p&gt;&lt;p style=&quot;margin:0px;margin-left:4px;&quot;&gt;+ clickEvent&lt;/p&gt;&lt;hr size=&quot;1&quot; style=&quot;border-style:solid;&quot;&gt;&lt;p style=&quot;margin:0px;margin-left:4px;&quot;&gt;&lt;br&gt;&lt;/p&gt;" style="verticalAlign=top;align=left;overflow=fill;html=1;whiteSpace=wrap;fillColor=#fff2cc;strokeColor=#d6b656;" vertex="1" parent="1">
          <mxGeometry x="500" y="830" width="160" height="90" as="geometry" />
        </mxCell>
        <mxCell id="h7VdWZ_x1tT9iMLf5sIj-25" value="&lt;p style=&quot;margin:0px;margin-top:4px;text-align:center;&quot;&gt;&lt;b&gt;EmptySpaceDelegator&lt;/b&gt;&lt;/p&gt;&lt;hr size=&quot;1&quot; style=&quot;border-style:solid;&quot;&gt;&lt;p style=&quot;margin:0px;margin-left:4px;&quot;&gt;+ constructor(delegate: DelegateInterface)&lt;/p&gt;&lt;hr size=&quot;1&quot; style=&quot;border-style:solid;&quot;&gt;&lt;p style=&quot;margin:0px;margin-left:4px;&quot;&gt;&lt;span style=&quot;background-color: transparent; color: light-dark(rgb(0, 0, 0), rgb(255, 255, 255));&quot;&gt;+ active()&lt;/span&gt;&lt;/p&gt;&lt;div&gt;&lt;br&gt;&lt;/div&gt;" style="verticalAlign=top;align=left;overflow=fill;html=1;whiteSpace=wrap;fillColor=#fff2cc;strokeColor=#d6b656;" vertex="1" parent="1">
          <mxGeometry x="880" y="830" width="240" height="90" as="geometry" />
        </mxCell>
        <mxCell id="h7VdWZ_x1tT9iMLf5sIj-32" style="edgeStyle=orthogonalEdgeStyle;rounded=0;orthogonalLoop=1;jettySize=auto;html=1;entryX=0.346;entryY=-0.009;entryDx=0;entryDy=0;entryPerimeter=0;" edge="1" parent="1" source="h7VdWZ_x1tT9iMLf5sIj-28" target="h7VdWZ_x1tT9iMLf5sIj-29">
          <mxGeometry relative="1" as="geometry" />
        </mxCell>
        <mxCell id="h7VdWZ_x1tT9iMLf5sIj-28" value="&lt;p style=&quot;margin:0px;margin-top:4px;text-align:center;&quot;&gt;&lt;b&gt;Highlight&lt;/b&gt;&lt;/p&gt;&lt;hr size=&quot;1&quot; style=&quot;border-style:solid;&quot;&gt;&lt;p style=&quot;margin:0px;margin-left:4px;&quot;&gt;+ words&lt;/p&gt;&lt;p style=&quot;margin:0px;margin-left:4px;&quot;&gt;+ highlightColors&lt;/p&gt;&lt;p style=&quot;margin:0px;margin-left:4px;&quot;&gt;+ &lt;b&gt;updatedEvent&lt;/b&gt;&lt;/p&gt;&lt;hr size=&quot;1&quot; style=&quot;border-style:solid;&quot;&gt;&lt;p style=&quot;margin:0px;margin-left:4px;&quot;&gt;+ hover()&lt;br&gt;+ click()&lt;br&gt;+ select()&lt;/p&gt;" style="verticalAlign=top;align=left;overflow=fill;html=1;whiteSpace=wrap;fillColor=#e1d5e7;strokeColor=#9673a6;" vertex="1" parent="1">
          <mxGeometry x="970" y="355" width="160" height="140" as="geometry" />
        </mxCell>
        <mxCell id="h7VdWZ_x1tT9iMLf5sIj-37" style="edgeStyle=orthogonalEdgeStyle;rounded=0;orthogonalLoop=1;jettySize=auto;html=1;exitX=0;exitY=0.25;exitDx=0;exitDy=0;entryX=1;entryY=0.5;entryDx=0;entryDy=0;" edge="1" parent="1" source="h7VdWZ_x1tT9iMLf5sIj-29" target="h7VdWZ_x1tT9iMLf5sIj-22">
          <mxGeometry relative="1" as="geometry" />
        </mxCell>
        <mxCell id="h7VdWZ_x1tT9iMLf5sIj-29" value="&lt;p style=&quot;margin:0px;margin-top:4px;text-align:center;&quot;&gt;&lt;b&gt;RangeHandles&lt;/b&gt;&lt;b style=&quot;background-color: transparent; color: light-dark(rgb(0, 0, 0), rgb(255, 255, 255));&quot;&gt;:&amp;nbsp;&lt;/b&gt;&lt;span style=&quot;background-color: transparent; color: light-dark(rgb(0, 0, 0), rgb(255, 255, 255)); text-align: left;&quot;&gt;EmptySpaceDelegate&lt;/span&gt;&lt;/p&gt;&lt;hr size=&quot;1&quot; style=&quot;border-style:solid;&quot;&gt;&lt;p style=&quot;margin:0px;margin-left:4px;&quot;&gt;+ resizeStartedEvent&lt;/p&gt;&lt;p style=&quot;margin:0px;margin-left:4px;&quot;&gt;+ resizeEndedEvent&lt;/p&gt;&lt;p style=&quot;margin:0px;margin-left:4px;&quot;&gt;+ resizeEvent&lt;/p&gt;&lt;hr size=&quot;1&quot; style=&quot;border-style:solid;&quot;&gt;&lt;p style=&quot;margin:0px;margin-left:4px;&quot;&gt;+ showHandles(range: Word[])&lt;/p&gt;" style="verticalAlign=top;align=left;overflow=fill;html=1;whiteSpace=wrap;fillColor=#fff2cc;strokeColor=#d6b656;" vertex="1" parent="1">
          <mxGeometry x="960" y="590" width="260" height="110" as="geometry" />
        </mxCell>
        <mxCell id="h7VdWZ_x1tT9iMLf5sIj-31" style="edgeStyle=orthogonalEdgeStyle;rounded=0;orthogonalLoop=1;jettySize=auto;html=1;entryX=0.75;entryY=0;entryDx=0;entryDy=0;exitX=0.385;exitY=0.973;exitDx=0;exitDy=0;exitPerimeter=0;" edge="1" parent="1" source="h7VdWZ_x1tT9iMLf5sIj-29" target="h7VdWZ_x1tT9iMLf5sIj-25">
          <mxGeometry relative="1" as="geometry" />
        </mxCell>
        <mxCell id="h7VdWZ_x1tT9iMLf5sIj-34" style="edgeStyle=orthogonalEdgeStyle;rounded=0;orthogonalLoop=1;jettySize=auto;html=1;exitX=0;exitY=0.75;exitDx=0;exitDy=0;entryX=1;entryY=0.818;entryDx=0;entryDy=0;entryPerimeter=0;" edge="1" parent="1" source="h7VdWZ_x1tT9iMLf5sIj-28" target="h7VdWZ_x1tT9iMLf5sIj-6">
          <mxGeometry relative="1" as="geometry" />
        </mxCell>
        <mxCell id="h7VdWZ_x1tT9iMLf5sIj-35" style="edgeStyle=orthogonalEdgeStyle;rounded=0;orthogonalLoop=1;jettySize=auto;html=1;exitX=0.75;exitY=1;exitDx=0;exitDy=0;entryX=0.581;entryY=-0.009;entryDx=0;entryDy=0;entryPerimeter=0;" edge="1" parent="1" source="h7VdWZ_x1tT9iMLf5sIj-11" target="h7VdWZ_x1tT9iMLf5sIj-6">
          <mxGeometry relative="1" as="geometry">
            <mxPoint x="750" y="380" as="targetPoint" />
          </mxGeometry>
        </mxCell>
        <mxCell id="h7VdWZ_x1tT9iMLf5sIj-41" style="edgeStyle=orthogonalEdgeStyle;rounded=0;orthogonalLoop=1;jettySize=auto;html=1;" edge="1" parent="1" source="h7VdWZ_x1tT9iMLf5sIj-38">
          <mxGeometry relative="1" as="geometry">
            <mxPoint x="390" y="598.8" as="targetPoint" />
          </mxGeometry>
        </mxCell>
        <mxCell id="h7VdWZ_x1tT9iMLf5sIj-38" value="&lt;p style=&quot;margin:0px;margin-top:4px;text-align:center;&quot;&gt;&lt;/p&gt;&lt;p style=&quot;margin:0px;margin-left:4px;&quot;&gt;&lt;span style=&quot;text-align: center; background-color: transparent; color: light-dark(rgb(0, 0, 0), rgb(255, 255, 255));&quot;&gt;TranscriptionCanvas&lt;/span&gt;&lt;/p&gt;&lt;hr size=&quot;1&quot; style=&quot;border-style:solid;&quot;&gt;&lt;p style=&quot;margin:0px;margin-left:4px;&quot;&gt;- CSS styles&amp;nbsp;&lt;/p&gt;&lt;p style=&quot;margin:0px;margin-left:4px;&quot;&gt;- Bind lifecycles&lt;/p&gt;&lt;p style=&quot;margin:0px;margin-left:4px;&quot;&gt;- Handle portals&lt;/p&gt;" style="verticalAlign=top;align=left;overflow=fill;html=1;whiteSpace=wrap;fillColor=#d5e8d4;strokeColor=#82b366;" vertex="1" parent="1">
          <mxGeometry x="160" y="567.5" width="160" height="90" as="geometry" />
        </mxCell>
        <mxCell id="h7VdWZ_x1tT9iMLf5sIj-39" value="React" style="shape=umlFrame;whiteSpace=wrap;html=1;pointerEvents=0;" vertex="1" parent="1">
          <mxGeometry x="150" y="460" width="180" height="330" as="geometry" />
        </mxCell>
        <mxCell id="h7VdWZ_x1tT9iMLf5sIj-43" style="edgeStyle=orthogonalEdgeStyle;rounded=0;orthogonalLoop=1;jettySize=auto;html=1;exitX=0.5;exitY=1;exitDx=0;exitDy=0;entryX=0;entryY=0.75;entryDx=0;entryDy=0;" edge="1" parent="1" source="h7VdWZ_x1tT9iMLf5sIj-42" target="h7VdWZ_x1tT9iMLf5sIj-16">
          <mxGeometry relative="1" as="geometry" />
        </mxCell>
        <mxCell id="h7VdWZ_x1tT9iMLf5sIj-44" style="edgeStyle=orthogonalEdgeStyle;rounded=0;orthogonalLoop=1;jettySize=auto;html=1;exitX=0.175;exitY=0.981;exitDx=0;exitDy=0;entryX=0;entryY=0.5;entryDx=0;entryDy=0;exitPerimeter=0;" edge="1" parent="1" source="h7VdWZ_x1tT9iMLf5sIj-42" target="h7VdWZ_x1tT9iMLf5sIj-23">
          <mxGeometry relative="1" as="geometry" />
        </mxCell>
        <mxCell id="h7VdWZ_x1tT9iMLf5sIj-42" value="&lt;p style=&quot;margin:0px;margin-top:4px;text-align:center;&quot;&gt;&lt;b&gt;TranscriptionEngine&lt;/b&gt;&lt;/p&gt;&lt;hr size=&quot;1&quot; style=&quot;border-style:solid;&quot;&gt;&lt;p style=&quot;margin:0px;margin-left:4px;&quot;&gt;+ wordClickEvent&lt;/p&gt;&lt;p style=&quot;margin:0px;margin-left:4px;&quot;&gt;+ highlightClickEvent&lt;/p&gt;&lt;hr size=&quot;1&quot; style=&quot;border-style:solid;&quot;&gt;&lt;p style=&quot;margin:0px;margin-left:4px;&quot;&gt;+ destroy()&lt;/p&gt;&lt;p style=&quot;margin:0px;margin-left:4px;&quot;&gt;+ selectHighlight()&lt;/p&gt;&lt;p style=&quot;margin:0px;margin-left:4px;&quot;&gt;+ setPlayTime()&lt;/p&gt;&lt;p style=&quot;margin:0px;margin-left:4px;&quot;&gt;+ updateHighlights()&lt;/p&gt;" style="verticalAlign=top;align=left;overflow=fill;html=1;whiteSpace=wrap;fillColor=#d5e8d4;strokeColor=#82b366;" vertex="1" parent="1">
          <mxGeometry x="400" y="540" width="160" height="160" as="geometry" />
        </mxCell>
      </root>
    </mxGraphModel>
  </diagram>
</mxfile>
